<svg width="619" height="165" viewBox="0 0 619 165" fill="none" xmlns="http://www.w3.org/2000/svg">
<g opacity="0.5">
<path d="M26.75 3.5H0.5V161H30.9062V58.1875L103.094 161H129.344V3.5H99.1563V106.313L26.75 3.5Z" fill="#372B43" fill-opacity="0.62"/>
<path d="M231.951 164.281C253.826 164.281 275.482 155.969 289.92 138.469C302.826 122.719 307.857 104.125 308.295 82.25C307.857 61.25 303.264 42 289.92 25.8125C275.92 8.75001 254.701 0.21875 231.951 0.21875C209.201 0.21875 187.764 8.53125 173.982 25.8125C161.295 41.125 155.607 61.25 155.607 82.25C155.607 103.25 161.295 123.156 173.982 138.469C187.545 155.531 209.42 164.281 231.951 164.281ZM231.951 136.281C218.389 136.5 205.264 131.031 197.607 120.531C189.514 110.031 187.107 96.0313 186.889 82.25C187.107 68.4688 189.514 54.25 197.607 43.9688C205.264 33.4688 218.389 28 231.951 28.2188C245.514 28 258.42 33.4688 266.295 43.9688C274.17 54.25 276.795 68.4688 276.795 82.25C276.795 96.0313 274.17 110.031 266.295 120.531C258.42 131.031 245.514 136.5 231.951 136.281Z" fill="#372B43" fill-opacity="0.62"/>
<path d="M444.016 3.5H314.953V33.25H364.609V161H394.359V33.25H444.016V3.5Z" fill="#372B43" fill-opacity="0.62"/>
<path d="M553.09 161H583.715L535.59 3.5H491.184L443.059 161H473.684L481.121 136.5H545.434L553.09 161ZM489.652 108.5L513.059 31.5L536.902 108.5H489.652Z" fill="#372B43" fill-opacity="0.62"/>
<path d="M708.279 84.2188C705.873 81.1563 703.248 78.3125 700.404 75.6875C700.623 75.4688 701.061 75.0313 701.279 74.5938C707.186 67.1563 710.686 57.5313 710.467 48.3438C710.248 38.7188 707.186 29.0938 701.279 21.6563C696.029 14 687.936 8.3125 678.748 5.6875C674.373 4.15625 669.779 3.5 665.186 3.5H602.404V161H668.904C673.936 161 678.967 159.906 683.779 158.594C693.404 155.531 702.154 149.625 708.279 141.531C714.404 133 717.686 122.938 717.686 112.875C717.686 102.375 714.404 92.3125 708.279 84.2188ZM664.967 31.2813C668.467 31.2813 673.717 34.125 675.904 36.9688C678.748 40.0313 680.061 44.1875 680.279 48.3438C680.498 52.0625 678.967 55.7813 676.561 58.625C674.154 61.6875 669.779 64.0938 666.717 64.75H632.592V31.2813H664.967ZM687.717 112.875C687.498 118.563 685.529 124.031 681.154 127.75C677.654 130.813 673.279 133 668.467 133H632.592V92.75H668.467C673.498 92.75 677.654 93.8438 682.029 98.2188C685.748 102.156 687.936 107.625 687.717 112.875Z" fill="#372B43" fill-opacity="0.62"/>
</g>
</svg>
