<svg width="338" height="159" viewBox="0 0 338 159" fill="none" xmlns="http://www.w3.org/2000/svg">
<mask id="path-1-outside-1_479_1733" maskUnits="userSpaceOnUse" x="-1" y="-1" width="683" height="161" fill="black">
<rect fill="white" x="-1" y="-1" width="683" height="161"/>
<path d="M0.7 155H26.32V48.425L96.46 155H122.08V3.79999H96.46V110.375L26.32 3.79999H0.7V155ZM215.377 158.15C230.497 158.15 243.447 154.86 254.227 148.28C265.077 141.63 273.372 132.39 279.112 120.56C284.922 108.73 287.827 95.01 287.827 79.4C287.827 63.72 284.922 50 279.112 38.24C273.372 26.41 265.077 17.205 254.227 10.625C243.447 3.97499 230.497 0.649997 215.377 0.649997C200.327 0.649997 187.377 3.97499 176.527 10.625C165.747 17.205 157.452 26.41 151.642 38.24C145.902 50 143.032 63.72 143.032 79.4C143.032 95.01 145.902 108.73 151.642 120.56C157.452 132.39 165.747 141.63 176.527 148.28C187.377 154.86 200.327 158.15 215.377 158.15ZM215.377 134.315C200.187 134.105 188.777 129.03 181.147 119.09C173.517 109.15 169.737 95.92 169.807 79.4C169.877 68.34 171.592 58.68 174.952 50.42C178.312 42.16 183.352 35.755 190.072 31.205C196.792 26.585 205.227 24.345 215.377 24.485C230.637 24.695 242.047 29.77 249.607 39.71C257.237 49.65 261.052 62.88 261.052 79.4C261.052 90.39 259.337 100.05 255.907 108.38C252.547 116.64 247.472 123.045 240.682 127.595C233.962 132.145 225.527 134.385 215.377 134.315ZM340.956 155H366.261V27.53H415.191V3.79999H292.026V27.53H340.956V155ZM417.378 155H443.418L453.708 122.24H513.348L523.743 155H549.783L502.113 3.79999H465.048L417.378 155ZM461.163 98.615L483.318 28.265L505.788 98.615H461.163ZM568.766 155H634.811C649.721 155 661.026 150.87 668.726 142.61C676.426 134.35 680.276 123.5 680.276 110.06C680.276 102.43 678.386 95.5 674.606 89.27C670.896 83.04 665.401 78.385 658.121 75.305C662.811 72.505 666.486 68.55 669.146 63.44C671.876 58.26 673.241 52.24 673.241 45.38C673.241 38.59 671.631 32.01 668.411 25.64C665.261 19.27 660.396 14.055 653.816 9.995C647.306 5.86499 638.941 3.79999 628.721 3.79999H568.766V155ZM594.386 64.175V27.425H628.406C634.426 27.425 639.116 29.175 642.476 32.675C645.836 36.175 647.516 40.55 647.516 45.8C647.516 51.82 645.661 56.405 641.951 59.555C638.311 62.635 633.796 64.175 628.406 64.175H594.386ZM594.386 131.165V87.8H632.396C639.466 87.8 644.961 89.865 648.881 93.995C652.801 98.125 654.761 103.235 654.761 109.325C654.761 116.045 652.556 121.365 648.146 125.285C643.806 129.205 638.311 131.165 631.661 131.165H594.386Z"/>
</mask>
<path d="M0.7 155H-0.761453V156.461H0.7V155ZM26.32 155V156.461H27.7815V155H26.32ZM26.32 48.425L27.5408 47.6216L24.8585 43.546V48.425H26.32ZM96.46 155L95.2392 155.803L95.6723 156.461H96.46V155ZM122.08 155V156.461H123.541V155H122.08ZM122.08 3.8H123.541V2.33854H122.08V3.8ZM96.46 3.8V2.33854H94.9986V3.8H96.46ZM96.46 110.375L95.2392 111.178L97.9215 115.254V110.375H96.46ZM26.32 3.8L27.5408 2.99656L27.1077 2.33854H26.32V3.8ZM0.7 3.8V2.33854H-0.761453V3.8H0.7ZM0.7 156.461H26.32V153.539H0.7V156.461ZM27.7815 155V48.425H24.8585V155H27.7815ZM25.0992 49.2284L95.2392 155.803L97.6808 154.197L27.5408 47.6216L25.0992 49.2284ZM96.46 156.461H122.08V153.539H96.46V156.461ZM123.541 155V3.8H120.619V155H123.541ZM122.08 2.33854H96.46V5.26144H122.08V2.33854ZM94.9986 3.8V110.375H97.9215V3.8H94.9986ZM97.6808 109.572L27.5408 2.99656L25.0992 4.60343L95.2392 111.178L97.6808 109.572ZM26.32 2.33854H0.7V5.26144H26.32V2.33854ZM-0.761453 3.8V155H2.16145V3.8H-0.761453ZM254.227 148.28L254.989 149.527L254.991 149.526L254.227 148.28ZM279.112 120.56L277.801 119.916L277.798 119.922L279.112 120.56ZM279.112 38.24L277.798 38.878L277.802 38.8873L279.112 38.24ZM254.227 10.625L253.46 11.8689L253.47 11.8746L254.227 10.625ZM176.527 10.625L177.289 11.8724L177.291 11.871L176.527 10.625ZM151.642 38.24L150.331 37.5957L150.329 37.5989L151.642 38.24ZM151.642 120.56L150.328 121.198L150.331 121.204L151.642 120.56ZM176.527 148.28L175.76 149.524L175.77 149.53L176.527 148.28ZM215.377 134.315L215.357 135.776L215.367 135.776L215.377 134.315ZM181.147 119.09L179.988 119.98L181.147 119.09ZM169.807 79.4L168.346 79.3907L168.346 79.3938L169.807 79.4ZM190.072 31.205L190.892 32.4152L190.9 32.4093L190.072 31.205ZM215.377 24.485L215.357 25.9463H215.357L215.377 24.485ZM249.607 39.71L248.444 40.5947L248.448 40.5999L249.607 39.71ZM255.907 108.38L254.556 107.824L254.554 107.829L255.907 108.38ZM240.682 127.595L239.869 126.381L239.863 126.385L240.682 127.595ZM215.377 159.611C230.713 159.611 243.938 156.273 254.989 149.527L253.466 147.033C242.957 153.447 230.282 156.689 215.377 156.689V159.611ZM254.991 149.526C266.087 142.725 274.57 133.27 280.427 121.198L277.798 119.922C272.175 131.51 264.067 140.535 253.464 147.034L254.991 149.526ZM280.424 121.204C286.349 109.14 289.289 95.1925 289.289 79.4H286.366C286.366 94.8275 283.496 108.32 277.801 119.916L280.424 121.204ZM289.289 79.4C289.289 63.5389 286.35 49.5896 280.423 37.5927L277.802 38.8873C283.495 50.4104 286.366 63.9011 286.366 79.4H289.289ZM280.427 37.602C274.569 25.5284 266.085 16.1068 254.985 9.37537L253.47 11.8746C264.07 18.3031 272.176 27.2916 277.798 38.878L280.427 37.602ZM254.995 9.38116C243.943 2.56344 230.715 -0.811455 215.377 -0.811455V2.11145C230.279 2.11145 242.952 5.38655 253.46 11.8688L254.995 9.38116ZM215.377 -0.811455C200.108 -0.811455 186.883 2.56417 175.764 9.37895L177.291 11.871C187.872 5.38581 200.547 2.11145 215.377 2.11145V-0.811455ZM175.766 9.37756C164.738 16.1087 156.257 25.5279 150.331 37.5957L152.954 38.8842C158.647 27.2921 166.757 18.3013 177.289 11.8724L175.766 9.37756ZM150.329 37.5989C144.474 49.5943 141.571 63.5414 141.571 79.4H144.494C144.494 63.8986 147.331 50.4056 152.956 38.881L150.329 37.5989ZM141.571 79.4C141.571 95.19 144.475 109.135 150.328 121.198L152.957 119.922C147.33 108.325 144.494 94.83 144.494 79.4H141.571ZM150.331 121.204C156.257 133.271 164.736 142.723 175.76 149.524L177.295 147.036C166.759 140.537 158.648 131.509 152.954 119.916L150.331 121.204ZM175.77 149.53C186.887 156.272 200.11 159.611 215.377 159.611V156.689C200.544 156.689 187.867 153.448 177.285 147.03L175.77 149.53ZM215.398 132.854C200.549 132.648 189.606 127.709 182.307 118.2L179.988 119.98C187.949 130.351 199.825 135.562 215.357 135.776L215.398 132.854ZM182.307 118.2C174.929 108.588 171.2 95.7055 171.269 79.4062L168.346 79.3938C168.275 96.1345 172.106 109.712 179.988 119.98L182.307 118.2ZM171.269 79.4092C171.338 68.4918 173.031 59.0228 176.306 50.9707L173.599 49.8693C170.154 58.3372 168.417 68.1882 168.346 79.3907L171.269 79.4092ZM176.306 50.9707C179.568 42.9509 184.435 36.7871 190.892 32.4152L189.253 29.9948C182.27 34.7229 177.056 41.369 173.599 49.8693L176.306 50.9707ZM190.9 32.4093C197.316 27.9987 205.435 25.8095 215.357 25.9463L215.398 23.0237C205.02 22.8805 196.269 25.1713 189.244 30.0007L190.9 32.4093ZM215.357 25.9463C230.279 26.1516 241.217 31.0922 248.444 40.5947L250.771 38.8253C242.878 28.4478 230.996 23.2383 215.398 23.0237L215.357 25.9463ZM248.448 40.5999C255.828 50.2138 259.591 63.0994 259.591 79.4H262.514C262.514 62.6606 258.647 49.0862 250.767 38.8201L248.448 40.5999ZM259.591 79.4C259.591 90.24 257.899 99.7043 254.556 107.824L257.259 108.936C260.776 100.396 262.514 90.54 262.514 79.4H259.591ZM254.554 107.829C251.293 115.845 246.395 122.008 239.869 126.381L241.496 128.809C248.55 124.082 253.802 117.435 257.261 108.931L254.554 107.829ZM239.863 126.385C233.443 130.732 225.316 132.922 215.387 132.854L215.367 135.776C225.738 135.848 234.482 133.558 241.502 128.805L239.863 126.385ZM340.956 155H339.494V156.461H340.956V155ZM366.261 155V156.461H367.722V155H366.261ZM366.261 27.53V26.0685H364.799V27.53H366.261ZM415.191 27.53V28.9914H416.652V27.53H415.191ZM415.191 3.8H416.652V2.33854H415.191V3.8ZM292.026 3.8V2.33854H290.564V3.8H292.026ZM292.026 27.53H290.564V28.9914H292.026V27.53ZM340.956 27.53H342.417V26.0685H340.956V27.53ZM340.956 156.461H366.261V153.539H340.956V156.461ZM367.722 155V27.53H364.799V155H367.722ZM366.261 28.9914H415.191V26.0685H366.261V28.9914ZM416.652 27.53V3.8H413.729V27.53H416.652ZM415.191 2.33854H292.026V5.26144H415.191V2.33854ZM290.564 3.8V27.53H293.487V3.8H290.564ZM292.026 28.9914H340.956V26.0685H292.026V28.9914ZM339.494 27.53V155H342.417V27.53H339.494ZM417.378 155L415.984 154.561L415.385 156.461H417.378V155ZM443.418 155V156.461H444.491L444.812 155.438L443.418 155ZM453.708 122.24V120.779H452.635L452.313 121.802L453.708 122.24ZM513.348 122.24L514.741 121.798L514.417 120.779H513.348V122.24ZM523.743 155L522.35 155.442L522.673 156.461H523.743V155ZM549.783 155V156.461H551.776L551.177 154.561L549.783 155ZM502.113 3.8L503.507 3.36055L503.184 2.33854H502.113V3.8ZM465.048 3.8V2.33854H463.976L463.654 3.36055L465.048 3.8ZM461.163 98.615L459.769 98.176L459.17 100.076H461.163V98.615ZM483.318 28.265L484.71 27.8203L483.308 23.4309L481.924 27.826L483.318 28.265ZM505.788 98.615V100.076H507.789L507.18 98.1703L505.788 98.615ZM417.378 156.461H443.418V153.539H417.378V156.461ZM444.812 155.438L455.102 122.678L452.313 121.802L442.023 154.562L444.812 155.438ZM453.708 123.701H513.348V120.779H453.708V123.701ZM511.955 122.682L522.35 155.442L525.136 154.558L514.741 121.798L511.955 122.682ZM523.743 156.461H549.783V153.539H523.743V156.461ZM551.177 154.561L503.507 3.36055L500.719 4.23943L548.389 155.439L551.177 154.561ZM502.113 2.33854H465.048V5.26144H502.113V2.33854ZM463.654 3.36055L415.984 154.561L418.772 155.439L466.442 4.23943L463.654 3.36055ZM462.557 99.054L484.712 28.704L481.924 27.826L459.769 98.176L462.557 99.054ZM481.926 28.7097L504.396 99.0597L507.18 98.1703L484.71 27.8203L481.926 28.7097ZM505.788 97.1535H461.163V100.076H505.788V97.1535ZM568.766 155H567.305V156.461H568.766V155ZM668.726 142.61L667.657 141.613L668.726 142.61ZM674.606 89.27L673.351 90.0178L673.357 90.0281L674.606 89.27ZM658.121 75.305L657.372 74.0502L654.897 75.5278L657.552 76.6509L658.121 75.305ZM669.146 63.44L667.854 62.7586L667.85 62.7652L669.146 63.44ZM668.411 25.64L667.101 26.2878L667.107 26.2993L668.411 25.64ZM653.816 9.995L653.034 11.2291L653.041 11.2339L653.049 11.2387L653.816 9.995ZM568.766 3.8V2.33854H567.305V3.8H568.766ZM594.386 64.175H592.925V65.6364H594.386V64.175ZM594.386 27.425V25.9635H592.925V27.425H594.386ZM642.476 32.675L643.531 31.6629L642.476 32.675ZM641.951 59.555L642.895 60.6707L642.897 60.6691L641.951 59.555ZM594.386 131.165H592.925V132.626H594.386V131.165ZM594.386 87.8V86.3385H592.925V87.8H594.386ZM648.146 125.285L647.175 124.193L647.167 124.2L648.146 125.285ZM568.766 156.461H634.811V153.539H568.766V156.461ZM634.811 156.461C649.991 156.461 661.738 152.25 669.795 143.607L667.657 141.613C660.315 149.49 649.452 153.539 634.811 153.539V156.461ZM669.795 143.607C677.794 135.026 681.738 123.795 681.738 110.06H678.815C678.815 123.205 675.059 133.674 667.657 141.613L669.795 143.607ZM681.738 110.06C681.738 102.176 679.781 94.9814 675.856 88.5119L673.357 90.0281C676.992 96.0186 678.815 102.684 678.815 110.06H681.738ZM675.862 88.5222C671.978 82.0005 666.23 77.1488 658.691 73.959L657.552 76.6509C664.573 79.6212 669.814 84.0795 673.351 90.0177L675.862 88.5222ZM658.871 76.5598C663.806 73.6132 667.665 69.4514 670.443 64.1148L667.85 62.7652C665.308 67.6486 661.817 71.3968 657.372 74.0502L658.871 76.5598ZM670.439 64.1214C673.298 58.698 674.703 52.4367 674.703 45.38H671.78C671.78 52.0433 670.455 57.822 667.854 62.7586L670.439 64.1214ZM674.703 45.38C674.703 38.3492 673.034 31.5443 669.716 24.9807L667.107 26.2993C670.229 32.4757 671.78 38.8308 671.78 45.38H674.703ZM669.721 24.9922C666.439 18.3551 661.376 12.942 654.584 8.75124L653.049 11.2387C659.417 15.168 664.083 20.1849 667.101 26.2878L669.721 24.9922ZM654.599 8.76093C647.79 4.44133 639.13 2.33854 628.721 2.33854V5.26144C638.752 5.26144 646.822 7.28866 653.034 11.2291L654.599 8.76093ZM628.721 2.33854H568.766V5.26144H628.721V2.33854ZM567.305 3.8V155H570.228V3.8H567.305ZM595.848 64.175V27.425H592.925V64.175H595.848ZM594.386 28.8865H628.406V25.9635H594.386V28.8865ZM628.406 28.8865C634.131 28.8865 638.401 30.5403 641.422 33.6871L643.531 31.6629C639.832 27.8097 634.722 25.9635 628.406 25.9635V28.8865ZM641.422 33.6871C644.498 36.8914 646.055 40.8933 646.055 45.8H648.978C648.978 40.2067 647.175 35.4586 643.531 31.6629L641.422 33.6871ZM646.055 45.8C646.055 51.5016 644.313 55.633 641.005 58.4409L642.897 60.6691C647.01 57.1769 648.978 52.1383 648.978 45.8H646.055ZM641.007 58.4393C637.666 61.2669 633.499 62.7135 628.406 62.7135V65.6364C634.094 65.6364 638.957 64.0031 642.895 60.6707L641.007 58.4393ZM628.406 62.7135H594.386V65.6364H628.406V62.7135ZM595.848 131.165V87.8H592.925V131.165H595.848ZM594.386 89.2614H632.396V86.3385H594.386V89.2614ZM632.396 89.2614C639.169 89.2614 644.241 91.2291 647.821 95.0011L649.941 92.9889C645.682 88.5009 639.764 86.3385 632.396 86.3385V89.2614ZM647.821 95.0011C651.465 98.8395 653.3 103.581 653.3 109.325H656.223C656.223 102.889 654.138 97.4105 649.941 92.9889L647.821 95.0011ZM653.3 109.325C653.3 115.692 651.228 120.59 647.175 124.193L649.117 126.377C653.884 122.14 656.223 116.398 656.223 109.325H653.3ZM647.167 124.2C643.132 127.844 638.003 129.704 631.661 129.704V132.626C638.62 132.626 644.48 130.566 649.126 126.37L647.167 124.2ZM631.661 129.704H594.386V132.626H631.661V129.704Z" fill="#8B8B8B" mask="url(#path-1-outside-1_479_1733)"/>
</svg>
